<svg width="192" height="33" viewBox="0 0 192 33" fill="none" xmlns="http://www.w3.org/2000/svg">
<path d="M64.2051 15.9683H191.58" stroke="#788654" stroke-opacity="0.4" stroke-width="2"/>
<path d="M44.0377 1.81641L44.9457 1.39753C44.8259 1.1377 44.6004 0.941665 44.3265 0.859023C44.0526 0.77638 43.7563 0.815048 43.5128 0.965242L44.0377 1.81641ZM64.8921 15.968L65.0454 16.9561C65.5326 16.8805 65.8921 16.4611 65.8921 15.968C65.8921 15.4749 65.5326 15.0554 65.0454 14.9798L64.8921 15.968ZM43.9677 31.1443L43.4399 31.9937C43.6861 32.1467 43.9866 32.1853 44.2635 32.0995C44.5404 32.0138 44.7665 31.8121 44.8831 31.5467L43.9677 31.1443ZM25.6963 16.1303L25.0151 15.3981C24.6119 15.7733 24.5879 16.4038 24.9614 16.8085L25.6963 16.1303ZM44.0377 1.81641L43.1296 2.23529C47.7997 12.3589 59.0652 16.0759 64.7387 16.9561L64.8921 15.968L65.0454 14.9798C59.5812 14.1321 49.1862 10.5898 44.9457 1.39753L44.0377 1.81641ZM64.8921 15.968L64.7387 14.9798C61.815 15.4334 57.5606 16.7627 53.4633 19.2657C49.3605 21.772 45.3612 25.4892 43.0522 30.7419L43.9677 31.1443L44.8831 31.5467C46.9849 26.7654 50.6487 23.3287 54.5059 20.9724C58.3684 18.6129 62.3709 17.371 65.0454 16.9561L64.8921 15.968ZM43.9677 31.1443L44.4954 30.2949C37.7023 26.0738 31.8364 21.309 26.4312 15.4521L25.6963 16.1303L24.9614 16.8085C30.4964 22.806 36.5039 27.6838 43.4399 31.9937L43.9677 31.1443ZM25.6963 16.1303L26.3774 16.8624C32.8438 10.8464 38.2712 6.54736 44.5626 2.66757L44.0377 1.81641L43.5128 0.965242C37.0811 4.93157 31.5494 9.31891 25.0151 15.3981L25.6963 16.1303Z" fill="#788654" fill-opacity="0.4"/>
</svg>
